<svg width="25" height="25" viewBox="0 0 25 25" fill="none" xmlns="http://www.w3.org/2000/svg">
<path d="M22.3055 10.6353H21.5V10.5938H12.5V14.5938H18.1515C17.327 16.9222 15.1115 18.5938 12.5 18.5938C9.1865 18.5938 6.5 15.9072 6.5 12.5938C6.5 9.28025 9.1865 6.59375 12.5 6.59375C14.0295 6.59375 15.421 7.17075 16.4805 8.11325L19.309 5.28475C17.523 3.62025 15.134 2.59375 12.5 2.59375C6.9775 2.59375 2.5 7.07125 2.5 12.5938C2.5 18.1163 6.9775 22.5938 12.5 22.5938C18.0225 22.5938 22.5 18.1163 22.5 12.5938C22.5 11.9233 22.431 11.2688 22.3055 10.6353Z" fill="#FFC107"/>
<path d="M3.65295 7.93925L6.93845 10.3488C7.82745 8.14775 9.98045 6.59375 12.5 6.59375C14.0295 6.59375 15.421 7.17075 16.4805 8.11325L19.309 5.28475C17.523 3.62025 15.134 2.59375 12.5 2.59375C8.65895 2.59375 5.32795 4.76225 3.65295 7.93925Z" fill="#FF3D00"/>
<path d="M12.5 22.5938C15.083 22.5938 17.43 21.6053 19.2045 19.9978L16.1095 17.3788C15.1055 18.1393 13.8575 18.5938 12.5 18.5938C9.89903 18.5938 7.69053 16.9353 6.85853 14.6208L3.59753 17.1333C5.25253 20.3718 8.61353 22.5938 12.5 22.5938Z" fill="#4CAF50"/>
<path d="M22.3055 10.6353H21.5V10.5938H12.5V14.5938H18.1515C17.7555 15.7122 17.036 16.6767 16.108 17.3792L16.1095 17.3783L19.2045 19.9972C18.9855 20.1962 22.5 17.5938 22.5 12.5938C22.5 11.9232 22.431 11.2688 22.3055 10.6353Z" fill="#6366F1"/>
</svg>
