<svg width="24" height="24" viewBox="0 0 24 24" fill="none" xmlns="http://www.w3.org/2000/svg">
<g clip-path="url(#clip0_1_115)">
<path d="M5.2201 14.0091L4.41317 17.0215L1.46388 17.0839C0.582468 15.4491 0.0825195 13.5786 0.0825195 11.591C0.0825195 9.66893 0.549959 7.85641 1.37853 6.26044H1.37916L4.00486 6.74182L5.15508 9.35177C4.91434 10.0536 4.78313 10.807 4.78313 11.591C4.78322 12.4418 4.93734 13.257 5.2201 14.0091Z" fill="#555555"/>
<path d="M23.0618 9.42535C23.1949 10.1265 23.2643 10.8506 23.2643 11.5907C23.2643 12.4205 23.1771 13.23 23.0109 14.0108C22.4466 16.6678 20.9723 18.9879 18.9299 20.6297L18.9292 20.6291L15.622 20.4603L15.1539 17.5384C16.5092 16.7436 17.5683 15.4998 18.1262 14.0108H11.9282V9.42535H18.2166H23.0618Z" fill="#555555"/>
<path d="M18.9292 20.6294L18.9298 20.63C16.9435 22.2266 14.4202 23.1819 11.6734 23.1819C7.25932 23.1819 3.4216 20.7147 1.46387 17.084L5.22009 14.0092C6.19894 16.6216 8.71901 18.4813 11.6734 18.4813C12.9433 18.4813 14.133 18.138 15.1539 17.5387L18.9292 20.6294Z" fill="#555555"/>
<path d="M19.072 2.66844L15.317 5.74257C14.2605 5.08216 13.0116 4.70066 11.6736 4.70066C8.65227 4.70066 6.08507 6.64562 5.15526 9.35169L1.3793 6.26036H1.37866C3.30773 2.54108 7.19386 0 11.6736 0C14.4859 0 17.0646 1.0018 19.072 2.66844Z" fill="#555555"/>
</g>
<defs>
<clipPath id="clip0_1_115">
<rect width="23.1818" height="23.1818" fill="white" transform="translate(0.0825195)"/>
</clipPath>
</defs>
</svg>
