<svg width="412" height="25" viewBox="0 0 412 25" fill="none" xmlns="http://www.w3.org/2000/svg">
<path d="M266 13.2032C266 7.6466 261.523 3.14209 256 3.14209C250.477 3.14209 246 7.6466 246 13.2032C246 18.2249 249.657 22.3873 254.438 23.1421V16.1115H251.898V13.2032H254.438V10.9866C254.438 8.46505 255.931 7.07221 258.215 7.07221C259.309 7.07221 260.453 7.26872 260.453 7.26872V9.7447H259.192C257.95 9.7447 257.562 10.5203 257.562 11.316V13.2032H260.336L259.893 16.1115H257.562V23.1421C262.343 22.3873 266 18.2251 266 13.2032Z" fill="#1C1917"/>
<path fill-rule="evenodd" clip-rule="evenodd" d="M296 4.14209H288C285.239 4.14209 283 6.38067 283 9.14209V17.1421C283 19.9035 285.239 22.1421 288 22.1421H296C298.761 22.1421 301 19.9035 301 17.1421V9.14209C301 6.38067 298.761 4.14209 296 4.14209ZM299.25 17.1421C299.244 18.9347 297.793 20.3866 296 20.3921H288C286.207 20.3866 284.755 18.9347 284.75 17.1421V9.14209C284.755 7.34944 286.207 5.89758 288 5.89209H296C297.793 5.89758 299.244 7.34944 299.25 9.14209V17.1421ZM296.75 9.39209C297.302 9.39209 297.75 8.94437 297.75 8.39209C297.75 7.83981 297.302 7.39209 296.75 7.39209C296.198 7.39209 295.75 7.83981 295.75 8.39209C295.75 8.94437 296.198 9.39209 296.75 9.39209ZM292 8.64209C289.515 8.64209 287.5 10.6568 287.5 13.1421C287.5 15.6274 289.515 17.6421 292 17.6421C294.485 17.6421 296.5 15.6274 296.5 13.1421C296.503 11.9478 296.029 10.8017 295.185 9.95717C294.34 9.11268 293.194 8.63943 292 8.64209ZM289.25 13.1421C289.25 14.6609 290.481 15.8921 292 15.8921C293.519 15.8921 294.75 14.6609 294.75 13.1421C294.75 11.6233 293.519 10.3921 292 10.3921C290.481 10.3921 289.25 11.6233 289.25 13.1421Z" fill="#1C1917"/>
<path d="M333.176 5.14209H335.936L329.906 11.9195L337 21.1421H331.446L327.095 15.5487L322.117 21.1421H319.355L325.805 13.8929L319 5.14209H324.695L328.628 10.2547L333.176 5.14209ZM332.207 19.5175H333.737L323.864 6.68137H322.223L332.207 19.5175Z" fill="#1C1917"/>
<path fill-rule="evenodd" clip-rule="evenodd" d="M356.5 4.14209C355.672 4.14209 355 4.81366 355 5.64209V20.6421C355 21.4705 355.672 22.1421 356.5 22.1421H371.5C372.328 22.1421 373 21.4705 373 20.6421V5.64209C373 4.81366 372.328 4.14209 371.5 4.14209H356.5ZM360.521 8.14481C360.526 9.10106 359.811 9.69028 358.961 9.68606C358.161 9.68184 357.464 9.04481 357.468 8.14622C357.472 7.30106 358.14 6.62184 359.008 6.64153C359.888 6.66122 360.526 7.30669 360.521 8.14481ZM364.28 10.9038H361.76H361.758V19.4637H364.422V19.264C364.422 18.8841 364.421 18.5041 364.421 18.124C364.42 17.1102 364.419 16.0953 364.425 15.0818C364.426 14.8357 364.437 14.5798 364.5 14.3449C364.738 13.4674 365.527 12.9007 366.407 13.04C366.973 13.1285 367.347 13.4562 367.504 13.9892C367.601 14.3224 367.645 14.681 367.649 15.0284C367.661 16.076 367.659 17.1236 367.657 18.1713C367.657 18.5411 367.656 18.9111 367.656 19.2809V19.4623H370.328V19.257C370.328 18.805 370.328 18.3531 370.327 17.9012C370.327 16.7717 370.326 15.6422 370.329 14.5123C370.331 14.0018 370.276 13.4984 370.151 13.0048C369.964 12.2707 369.577 11.6632 368.948 11.2245C368.503 10.9123 368.013 10.7112 367.466 10.6887C367.404 10.6861 367.341 10.6827 367.278 10.6793C366.998 10.6642 366.714 10.6488 366.447 10.7028C365.682 10.856 365.01 11.2062 364.502 11.8235C364.443 11.8943 364.385 11.9662 364.299 12.0735L364.28 12.0978V10.9038ZM357.682 19.4665H360.332V10.9094H357.682V19.4665Z" fill="#1C1917"/>
<path d="M409.593 8.10242C409.479 7.67982 409.257 7.29443 408.947 6.98459C408.638 6.67475 408.253 6.45128 407.831 6.33642C406.265 5.90642 400 5.89942 400 5.89942C400 5.89942 393.736 5.89242 392.169 6.30342C391.747 6.42357 391.363 6.6502 391.054 6.96156C390.744 7.27291 390.52 7.65854 390.403 8.08142C389.99 9.64742 389.986 12.8954 389.986 12.8954C389.986 12.8954 389.982 16.1594 390.392 17.7094C390.622 18.5664 391.297 19.2434 392.155 19.4744C393.737 19.9044 399.985 19.9114 399.985 19.9114C399.985 19.9114 406.25 19.9184 407.816 19.5084C408.239 19.3938 408.624 19.1708 408.934 18.8616C409.244 18.5524 409.467 18.1677 409.583 17.7454C409.997 16.1804 410 12.9334 410 12.9334C410 12.9334 410.02 9.66842 409.593 8.10242ZM397.996 15.9044L398.001 9.90442L403.208 12.9094L397.996 15.9044Z" fill="#1C1917"/>
</svg>
